<svg width="104" height="70" viewBox="0 0 104 70" fill="none" xmlns="http://www.w3.org/2000/svg">
<path d="M49.2637 69.79C48.9672 69.79 48.7078 69.6874 48.4854 69.4821C48.2816 69.2769 48.1797 69.0157 48.1797 68.6985V49.0232C48.1797 48.7246 48.2816 48.4727 48.4854 48.2675C48.7078 48.0436 48.9672 47.9316 49.2637 47.9316C49.5602 47.9316 49.8104 48.0436 50.0142 48.2675C50.2365 48.4727 50.3477 48.7246 50.3477 49.0232V67.7189H61.2157C61.5122 67.7189 61.7624 67.8215 61.9662 68.0268C62.1886 68.2134 62.2998 68.4559 62.2998 68.7545C62.2998 69.053 62.1886 69.3049 61.9662 69.5101C61.7624 69.6967 61.5122 69.79 61.2157 69.79H49.2637Z" fill="white"/>
<path d="M68.2983 69.93C66.8715 69.93 65.5929 69.5941 64.4626 68.9224C63.3322 68.232 62.4335 67.2991 61.7664 66.1236C61.1179 64.9481 60.7936 63.6234 60.7936 62.1494C60.7936 60.6567 61.1271 59.3226 61.7942 58.1471C62.4798 56.9717 63.4064 56.0481 64.5738 55.3764C65.7412 54.686 67.0568 54.3408 68.5207 54.3408C69.9846 54.3408 71.291 54.686 72.4399 55.3764C73.6073 56.0481 74.5245 56.9717 75.1916 58.1471C75.8772 59.3226 76.2293 60.6567 76.2478 62.1494V68.7265C76.2478 69.0437 76.1459 69.3049 75.9421 69.5101C75.7382 69.6967 75.4788 69.79 75.1638 69.79C74.8488 69.79 74.5894 69.6967 74.3855 69.5101C74.1817 69.3049 74.0798 69.0437 74.0798 68.7265V67.0192C73.4498 67.9148 72.6344 68.6239 71.6338 69.1463C70.6332 69.6687 69.5213 69.93 68.2983 69.93ZM68.5207 67.9708C69.5955 67.9708 70.5498 67.7189 71.3836 67.2151C72.236 66.7114 72.9031 66.021 73.3849 65.1441C73.8852 64.2485 74.1354 63.2502 74.1354 62.1494C74.1354 61.0299 73.8852 60.0316 73.3849 59.1547C72.9031 58.2777 72.236 57.5874 71.3836 57.0836C70.5498 56.5612 69.5955 56.3 68.5207 56.3C67.4645 56.3 66.5102 56.5612 65.6578 57.0836C64.8054 57.5874 64.129 58.2777 63.6287 59.1547C63.1284 60.0316 62.8782 61.0299 62.8782 62.1494C62.8782 63.2502 63.1284 64.2485 63.6287 65.1441C64.129 66.021 64.8054 66.7114 65.6578 67.2151C66.5102 67.7189 67.4645 67.9708 68.5207 67.9708Z" fill="white"/>
<path d="M84.2184 69.93C82.773 69.93 81.4666 69.5941 80.2992 68.9224C79.1504 68.2507 78.2331 67.3364 77.5475 66.1796C76.8804 65.0041 76.5376 63.6887 76.5191 62.2333V49.0232C76.5191 48.6873 76.6117 48.4261 76.797 48.2395C77.0008 48.0343 77.2695 47.9316 77.6031 47.9316C77.9181 47.9316 78.1682 48.0343 78.3536 48.2395C78.5574 48.4261 78.6593 48.6873 78.6593 49.0232V57.2515C79.2708 56.3746 80.0769 55.6749 81.0775 55.1525C82.0967 54.6114 83.227 54.3408 84.4685 54.3408C85.8954 54.3408 87.174 54.686 88.3043 55.3764C89.4347 56.0481 90.3241 56.9717 90.9727 58.1471C91.6398 59.3226 91.9733 60.6474 91.9733 62.1214C91.9733 63.6141 91.6305 64.9481 90.9449 66.1236C90.2778 67.2991 89.3605 68.232 88.1931 68.9224C87.0257 69.5941 85.7008 69.93 84.2184 69.93ZM84.2184 67.9708C85.2931 67.9708 86.2567 67.7189 87.1091 67.2151C87.9615 66.6927 88.6286 65.993 89.1104 65.1161C89.6107 64.2391 89.8608 63.2409 89.8608 62.1214C89.8608 61.0205 89.6107 60.0316 89.1104 59.1547C88.6286 58.2591 87.9615 57.5594 87.1091 57.0556C86.2567 56.5518 85.2931 56.3 84.2184 56.3C83.1622 56.3 82.2078 56.5518 81.3555 57.0556C80.5031 57.5594 79.836 58.2591 79.3542 59.1547C78.8724 60.0316 78.6315 61.0205 78.6315 62.1214C78.6315 63.2409 78.8724 64.2391 79.3542 65.1161C79.836 65.993 80.5031 66.6927 81.3555 67.2151C82.2078 67.7189 83.1622 67.9708 84.2184 67.9708Z" fill="white"/>
<path d="M97.5888 69.93C96.4956 69.93 95.4115 69.7434 94.3368 69.3702C93.262 68.997 92.3911 68.4373 91.724 67.6909C91.5202 67.467 91.4368 67.2151 91.4738 66.9353C91.5109 66.6554 91.6499 66.4128 91.8908 66.2076C92.1502 66.021 92.4189 65.9464 92.6968 65.9837C92.9748 66.021 93.2064 66.1423 93.3917 66.3475C93.8365 66.87 94.4202 67.2711 95.1428 67.551C95.8841 67.8309 96.6994 67.9708 97.5888 67.9708C98.9601 67.9708 99.9514 67.7376 100.563 67.2711C101.174 66.786 101.489 66.2076 101.508 65.5359C101.508 64.8642 101.193 64.3138 100.563 63.8846C99.9329 63.4368 98.8952 63.0916 97.4499 62.8491C95.5783 62.5505 94.2071 62.0281 93.3361 61.2818C92.4652 60.5354 92.0298 59.6491 92.0298 58.6229C92.0298 57.6714 92.2799 56.8784 92.7802 56.244C93.2805 55.6096 93.9476 55.1338 94.7815 54.8166C95.6154 54.4994 96.5326 54.3408 97.5332 54.3408C98.7748 54.3408 99.8403 54.5554 100.73 54.9845C101.638 55.4137 102.37 55.9921 102.926 56.7198C103.111 56.9623 103.185 57.2142 103.148 57.4754C103.111 57.7367 102.963 57.9512 102.703 58.1192C102.481 58.2498 102.221 58.2964 101.925 58.2591C101.647 58.2031 101.406 58.0632 101.202 57.8393C100.294 56.7944 99.0527 56.272 97.4777 56.272C96.4585 56.272 95.6432 56.4865 95.0317 56.9157C94.4202 57.3262 94.1144 57.8486 94.1144 58.483C94.1144 59.1174 94.3831 59.6398 94.9205 60.0503C95.4764 60.4608 96.5141 60.7966 98.0336 61.0579C99.4233 61.2818 100.517 61.6176 101.313 62.0654C102.129 62.4946 102.703 63.0077 103.037 63.6047C103.389 64.1831 103.565 64.8175 103.565 65.5079C103.565 66.3848 103.305 67.1592 102.787 67.8309C102.286 68.4839 101.582 68.997 100.674 69.3702C99.7847 69.7434 98.7562 69.93 97.5888 69.93Z" fill="white"/>
<path d="M75.8728 29.614H78.3052V32.0169C78.9283 30.8004 79.8476 30.2669 80.7672 29.7626C82.452 28.9558 84.0993 29.2286 84.7124 29.4658C84.7322 30.0393 84.7598 31.3168 84.7124 31.8389C82.3393 31.0677 80.7968 31.8092 80.4409 32.0169C79.0408 32.9898 78.5266 35.1844 78.3981 36.0644L78.3052 44.7721H75.8728V29.614Z" fill="white"/>
<path fill-rule="evenodd" clip-rule="evenodd" d="M71.7789 37.7746C71.9075 36.1333 71.6663 32.459 69.6729 30.8927C67.8929 28.9647 63.5918 28.6678 61.0111 30.3883C59.8146 31.0706 57.4752 33.4616 57.6887 37.567C57.689 37.5824 57.6894 37.5982 57.6897 37.6144C57.7198 39.1268 57.8182 44.0755 64.3631 45.2202C65.5793 45.2795 68.071 45.2795 71.156 44.1226C71.2272 43.4344 71.1856 42.2143 71.156 41.6902C70.3748 42.1747 68.3024 43.1319 66.2615 43.0844C64.6004 43.0547 62.2866 42.9657 61.1594 40.919C60.6611 39.8986 60.3981 38.3975 60.3289 37.7746H71.7789ZM60.3666 35.9027H69.2833C69.3341 34.4475 68.6167 31.5034 65.341 31.368C64.8672 31.3511 62.2446 31.2667 60.9079 33.7878C60.7049 34.2785 60.3666 35.1748 60.3666 35.9027Z" fill="white"/>
<path d="M86.8599 29.6376H89.3178V31.9C91.1891 29.5257 92.53 29.47 93.1445 29.3303C95.7701 28.7717 97.6136 30.1124 98.4515 30.9783C99.1219 31.671 99.5502 33.7994 99.6805 34.777V44.8044H97.0829C97.0736 42.0113 97.0605 36.1903 97.0829 35.2518C96.8874 32.6821 96.1891 32.319 95.5187 31.9C93.6752 30.9224 92.0831 31.6766 91.6921 31.9C90.1056 32.4586 89.4482 34.3673 89.3178 35.2518V44.8044H86.8599V29.6376Z" fill="white"/>
<path d="M47.8354 25.3037H50.2947L50.3607 29.5417H55.499V31.54H50.3607C50.3534 34.1384 50.3431 39.6602 50.3607 40.9602C50.3783 42.2601 51.4806 42.7022 52.0295 42.7608H55.499V44.8249C50.7779 44.9566 50.0533 44.4955 49.5263 44.2979C48.2614 43.683 47.872 41.8166 47.8354 40.9602L47.7257 31.54H45.969V29.5417H47.8354V25.3037Z" fill="white"/>
<path d="M34.0168 23.4276C34.0168 23.4276 32.9382 22.3117 32.5684 23.4276C32.5992 23.7996 33.0615 25.8765 34.3867 28.5734C35.2804 29.9994 41.0743 38.7411 42.7694 41.407C43.4782 42.5849 44.8034 44.6929 45.3582 45.1269C45.7588 45.2508 46.3444 45.0959 46.1286 43.5149C45.9129 41.934 44.711 39.857 42.831 36.9121C41.1545 34.2958 34.0168 23.4276 34.0168 23.4276Z" fill="white"/>
<path fill-rule="evenodd" clip-rule="evenodd" d="M19.6861 45.4389C14.7551 48.5697 8.65302 48.5697 8.65302 48.5697C9.43475 53.6807 10.5706 55.3319 11.6252 56.8649C11.7347 57.0241 11.8433 57.182 11.9506 57.3425C14.4968 60.6352 17.2218 60.4496 18.1905 60.3836C18.2067 60.3825 18.2224 60.3814 18.2376 60.3804C21.4851 60.3804 23.7583 58.6588 24.7166 57.9332C24.795 57.8737 24.8647 57.821 24.9253 57.7764C28.038 55.4515 31.5205 49.3447 32.5684 47.3918C33.345 45.9442 35.29 41.3801 36.6588 38.1679C37.1367 37.0465 37.5444 36.0898 37.8076 35.4882C38.8246 33.1633 43.1392 21.3527 43.5398 20.0197C44.5569 17.7878 48.7482 4.67521 48.7482 4.67521L44.711 6.78314L44.0946 5.17119L51.4911 0.986328L55.0044 8.17809L53.4635 9.01506L51.4911 5.32618C51.4911 5.32618 51.337 5.41918 50.8439 6.65914C50.3508 7.8991 48.1318 14.4399 47.3305 16.9818C46.5293 19.5237 45.2657 22.9336 43.6015 27.3974C42.7626 29.6476 41.6261 32.9298 40.5117 36.1478C39.4155 39.3136 38.3407 42.4174 37.5918 44.4159C35.6194 49.5617 32.3526 54.8005 31.4281 56.1955C27.5263 62.141 24.2022 63.991 22.5996 64.8831C22.5059 64.9352 22.4182 64.984 22.3365 65.0302C13.6712 69.0325 8.50112 65.2944 7.17683 64.3369C7.11641 64.2932 7.064 64.2553 7.01962 64.2242C0.562204 57.7008 0.831499 51.1517 1.02379 46.4752C1.04258 46.0183 1.06063 45.5792 1.0716 45.1599C1.34897 38.9911 3.6912 33.4422 4.30757 32.0783C7.60686 25.7272 12.2448 23.8645 13.8369 23.2252C13.9699 23.1717 14.0816 23.1268 14.1696 23.0886C22.093 21.0664 24.7694 23.6658 26.0896 24.9479C26.1456 25.0023 26.1991 25.0543 26.2505 25.1035C30.1953 29.2884 27.3908 36.3562 26.7744 37.8441C24.8637 42.029 21.0113 44.5709 19.6861 45.4389ZM19.0064 40.0137C15.5239 44.8805 8.68214 45.5315 8.68214 45.5315C9.17524 37.7817 11.2093 33.4109 11.2093 33.4109C13.3049 27.955 15.9245 26.8081 16.7566 26.4671C20.8436 25.5568 21.2528 28.5961 21.4418 29.9996C21.4523 30.0778 21.4621 30.1509 21.4719 30.218C21.9865 36.3719 19.7429 39.1112 19.1204 39.8713C19.0718 39.9306 19.0332 39.9778 19.0064 40.0137Z" fill="white"/>
</svg>
