<svg width="101" height="69" viewBox="0 0 101 69" fill="none" xmlns="http://www.w3.org/2000/svg">
<path d="M47.3595 68.2168C47.0698 68.2168 46.8163 68.1165 46.599 67.916C46.3999 67.7154 46.3003 67.4602 46.3003 67.1503V47.9256C46.3003 47.6339 46.3999 47.3878 46.599 47.1873C46.8163 46.9685 47.0698 46.8591 47.3595 46.8591C47.6492 46.8591 47.8936 46.9685 48.0928 47.1873C48.31 47.3878 48.4187 47.6339 48.4187 47.9256V66.1931H59.0377C59.3274 66.1931 59.5718 66.2934 59.771 66.4939C59.9883 66.6763 60.0969 66.9133 60.0969 67.205C60.0969 67.4966 59.9883 67.7428 59.771 67.9433C59.5718 68.1256 59.3274 68.2168 59.0377 68.2168H47.3595Z" fill="black"/>
<path d="M65.9581 68.3535C64.5639 68.3535 63.3146 68.0253 62.2102 67.369C61.1057 66.6945 60.2276 65.7829 59.5758 64.6344C58.9421 63.4858 58.6252 62.1914 58.6252 60.7512C58.6252 59.2927 58.9511 57.9892 59.603 56.8406C60.2729 55.6921 61.1782 54.7896 62.3188 54.1333C63.4595 53.4588 64.745 53.1215 66.1753 53.1215C67.6057 53.1215 68.8822 53.4588 70.0047 54.1333C71.1454 54.7896 72.0416 55.6921 72.6934 56.8406C73.3633 57.9892 73.7074 59.2927 73.7255 60.7512V67.1776C73.7255 67.4875 73.6259 67.7428 73.4267 67.9433C73.2276 68.1256 72.9741 68.2168 72.6663 68.2168C72.3585 68.2168 72.105 68.1256 71.9058 67.9433C71.7067 67.7428 71.6071 67.4875 71.6071 67.1776V65.5095C70.9915 66.3846 70.1948 67.0773 69.2171 67.5878C68.2394 68.0983 67.1531 68.3535 65.9581 68.3535ZM66.1753 66.4392C67.2255 66.4392 68.1579 66.1931 68.9727 65.7009C69.8056 65.2087 70.4574 64.5341 70.9281 63.6772C71.417 62.8022 71.6614 61.8268 71.6614 60.7512C71.6614 59.6573 71.417 58.6819 70.9281 57.8251C70.4574 56.9682 69.8056 56.2937 68.9727 55.8014C68.1579 55.291 67.2255 55.0357 66.1753 55.0357C65.1433 55.0357 64.2109 55.291 63.378 55.8014C62.5451 56.2937 61.8843 56.9682 61.3954 57.8251C60.9066 58.6819 60.6621 59.6573 60.6621 60.7512C60.6621 61.8268 60.9066 62.8022 61.3954 63.6772C61.8843 64.5341 62.5451 65.2087 63.378 65.7009C64.2109 66.1931 65.1433 66.4392 66.1753 66.4392Z" fill="black"/>
<path d="M81.5134 68.3535C80.1012 68.3535 78.8247 68.0253 77.684 67.369C76.5615 66.7127 75.6653 65.8194 74.9953 64.6891C74.3435 63.5405 74.0086 62.2552 73.9905 60.8332V47.9256C73.9905 47.5975 74.081 47.3423 74.2621 47.1599C74.4612 46.9594 74.7238 46.8591 75.0497 46.8591C75.3575 46.8591 75.6019 46.9594 75.7829 47.1599C75.9821 47.3423 76.0817 47.5975 76.0817 47.9256V55.9655C76.6792 55.1087 77.4668 54.425 78.4445 53.9145C79.4403 53.3858 80.5448 53.1215 81.7579 53.1215C83.152 53.1215 84.4013 53.4588 85.5057 54.1333C86.6102 54.7896 87.4793 55.6921 88.113 56.8406C88.7648 57.9892 89.0907 59.2836 89.0907 60.7238C89.0907 62.1823 88.7557 63.4858 88.0858 64.6344C87.434 65.7829 86.5378 66.6945 85.3971 67.369C84.2565 68.0253 82.9619 68.3535 81.5134 68.3535ZM81.5134 66.4392C82.5636 66.4392 83.5051 66.1931 84.3379 65.7009C85.1708 65.1904 85.8226 64.5068 86.2933 63.6499C86.7822 62.793 87.0266 61.8177 87.0266 60.7238C87.0266 59.6482 86.7822 58.6819 86.2933 57.8251C85.8226 56.95 85.1708 56.2663 84.3379 55.7741C83.5051 55.2819 82.5636 55.0357 81.5134 55.0357C80.4814 55.0357 79.5489 55.2819 78.7161 55.7741C77.8832 56.2663 77.2314 56.95 76.7607 57.8251C76.2899 58.6819 76.0545 59.6482 76.0545 60.7238C76.0545 61.8177 76.2899 62.793 76.7607 63.6499C77.2314 64.5068 77.8832 65.1904 78.7161 65.7009C79.5489 66.1931 80.4814 66.4392 81.5134 66.4392Z" fill="black"/>
<path d="M94.5776 68.3535C93.5093 68.3535 92.4502 68.1712 91.4 67.8066C90.3499 67.442 89.4989 66.895 88.8471 66.1658C88.6479 65.947 88.5665 65.7009 88.6027 65.4274C88.6389 65.154 88.7747 64.917 89.0101 64.7164C89.2635 64.5341 89.5261 64.4612 89.7977 64.4976C90.0693 64.5341 90.2956 64.6526 90.4766 64.8531C90.9112 65.3636 91.4815 65.7556 92.1876 66.0291C92.9119 66.3025 93.7085 66.4392 94.5776 66.4392C95.9174 66.4392 96.8861 66.2114 97.4836 65.7556C98.0811 65.2816 98.3889 64.7164 98.407 64.0601C98.407 63.4038 98.0992 62.866 97.4836 62.4467C96.868 62.0091 95.854 61.6718 94.4418 61.4348C92.6131 61.1431 91.2733 60.6327 90.4223 59.9034C89.5713 59.1742 89.1459 58.3082 89.1459 57.3055C89.1459 56.3757 89.3903 55.6009 89.8791 54.9811C90.368 54.3612 91.0198 53.8963 91.8346 53.5864C92.6493 53.2764 93.5456 53.1215 94.5233 53.1215C95.7364 53.1215 96.7774 53.3311 97.6465 53.7505C98.5337 54.1698 99.2489 54.7349 99.7921 55.4459C99.9731 55.6829 100.046 55.9291 100.009 56.1843C99.9731 56.4395 99.8283 56.6492 99.5748 56.8133C99.3575 56.9409 99.104 56.9865 98.8143 56.95C98.5428 56.8953 98.3074 56.7586 98.1082 56.5398C97.221 55.5189 96.0079 55.0084 94.469 55.0084C93.4731 55.0084 92.6765 55.2181 92.079 55.6374C91.4815 56.0385 91.1828 56.5489 91.1828 57.1688C91.1828 57.7886 91.4453 58.2991 91.9704 58.7002C92.5135 59.1013 93.5275 59.4294 95.0121 59.6847C96.3701 59.9034 97.4383 60.2316 98.2169 60.6691C99.0135 61.0884 99.5748 61.5898 99.9007 62.1732C100.245 62.7383 100.417 63.3582 100.417 64.0328C100.417 64.8896 100.163 65.6462 99.6563 66.3025C99.1674 66.9406 98.4794 67.442 97.5922 67.8066C96.7231 68.1712 95.7183 68.3535 94.5776 68.3535Z" fill="black"/>
<path d="M73.3592 28.9644H75.7359V31.3123C76.3447 30.1236 77.2429 29.6024 78.1414 29.1096C79.7877 28.3213 81.3973 28.5878 81.9963 28.8196C82.0156 29.38 82.0427 30.6282 81.9963 31.1383C79.6776 30.3848 78.1704 31.1094 77.8226 31.3123C76.4546 32.2629 75.9522 34.4072 75.8266 35.2671L75.7359 43.7753H73.3592V28.9644Z" fill="black"/>
<path fill-rule="evenodd" clip-rule="evenodd" d="M69.3598 36.9359C69.4854 35.3321 69.2498 31.7421 67.302 30.2116C65.5628 28.3278 61.3602 28.0377 58.8386 29.7188C57.6696 30.3855 55.3837 32.7217 55.5924 36.7331C55.5927 36.7481 55.593 36.7635 55.5933 36.7793C55.6227 38.2572 55.7189 43.0925 62.1139 44.2109C63.3022 44.2689 65.7368 44.2689 68.7511 43.1385C68.8207 42.4661 68.7801 41.2739 68.7511 40.7618C67.9879 41.2352 65.9629 42.1704 63.9688 42.1241C62.3457 42.0951 60.085 42.0081 58.9836 40.0082C58.4967 39.0112 58.2397 37.5446 58.1721 36.9359H69.3598ZM58.2104 35.1083H66.9229C66.9725 33.6864 66.2715 30.8097 63.0708 30.6774C62.6079 30.6609 60.0454 30.5785 58.7393 33.0418C58.5409 33.5212 58.2104 34.3971 58.2104 35.1083Z" fill="black"/>
<path d="M84.0942 28.9884H86.4958V31.199C88.3242 28.8791 89.6345 28.8246 90.2349 28.6881C92.8003 28.1423 94.6016 29.4523 95.4203 30.2983C96.0753 30.9752 96.4938 33.0548 96.6211 34.01V43.8078H94.083C94.0739 41.0786 94.0612 35.391 94.083 34.474C93.892 31.9631 93.2097 31.6083 92.5547 31.199C90.7534 30.2438 89.1978 30.9806 88.8157 31.199C87.2655 31.7448 86.6232 33.6097 86.4958 34.474V43.8078H84.0942V28.9884Z" fill="black"/>
<path d="M45.9629 24.7507H48.3659L48.4304 28.8917H53.451V30.8441H48.4304C48.4232 33.383 48.4132 38.7784 48.4304 40.0485C48.4475 41.3187 49.5246 41.7507 50.061 41.8079H53.451V43.8247C48.838 43.9535 48.13 43.5029 47.6151 43.3098C46.3792 42.709 45.9987 40.8853 45.9629 40.0485L45.8557 30.8441H44.1393V28.8917H45.9629V24.7507Z" fill="black"/>
<path d="M32.4623 22.9192C32.4623 22.9192 31.4084 21.8288 31.047 22.9192C31.0771 23.2827 31.5288 25.312 32.8237 27.9471C33.6969 29.3404 39.3581 37.8818 41.0143 40.4867C41.7069 41.6377 43.0018 43.6973 43.5438 44.1213C43.9353 44.2425 44.5074 44.091 44.2966 42.5463C44.0858 41.0016 42.9114 38.9722 41.0746 36.0948C39.4364 33.5384 32.4623 22.9192 32.4623 22.9192Z" fill="black"/>
<path fill-rule="evenodd" clip-rule="evenodd" d="M18.46 44.4254C13.6419 47.4846 7.67961 47.4846 7.67961 47.4846C8.44343 52.4785 9.55324 54.0918 10.5837 55.5897C10.6907 55.7453 10.7968 55.8996 10.9017 56.0563C13.3895 59.2736 16.052 59.0922 16.9986 59.0278C17.0144 59.0267 17.0298 59.0256 17.0447 59.0246C20.2177 59.0246 22.4389 57.3426 23.3752 56.6335C23.4518 56.5755 23.5199 56.5239 23.5791 56.4804C26.6205 54.2087 30.0233 48.2418 31.0471 46.3336C31.806 44.9192 33.7064 40.4596 35.0438 37.3211C35.5108 36.2253 35.9091 35.2906 36.1663 34.7027C37.16 32.431 41.3758 20.891 41.7672 19.5886C42.761 17.4078 46.8563 4.59558 46.8563 4.59558L42.9115 6.65522L42.3093 5.0802L49.5363 0.991211L52.9692 8.01822L51.4635 8.83602L49.5363 5.23165C49.5363 5.23165 49.3858 5.32252 48.904 6.53407C48.4222 7.74562 46.254 14.1366 45.4711 16.6203C44.6882 19.1039 43.4536 22.4357 41.8275 26.7973C41.0078 28.996 39.8973 32.2029 38.8085 35.3473C37.7373 38.4406 36.6872 41.4732 35.9555 43.4259C34.0283 48.4538 30.8363 53.5726 29.9329 54.9356C26.1205 60.7449 22.8726 62.5526 21.3067 63.4242C21.2152 63.4751 21.1294 63.5228 21.0497 63.568C12.5828 67.4785 7.5312 63.8261 6.23724 62.8906C6.17821 62.8479 6.12699 62.8108 6.08363 62.7805C-0.22586 56.4065 0.0372657 50.0074 0.225154 45.438C0.243511 44.9915 0.261149 44.5626 0.27187 44.1528C0.542885 38.1253 2.83145 32.7036 3.43371 31.3709C6.65742 25.1653 11.1891 23.3453 12.7447 22.7206C12.8747 22.6684 12.9839 22.6245 13.0698 22.5872C20.8117 20.6113 23.4268 23.1511 24.7167 24.4039C24.7714 24.457 24.8238 24.5079 24.874 24.5559C28.7284 28.6449 25.9882 35.5508 25.3859 37.0046C23.5189 41.0936 19.7548 43.5773 18.46 44.4254ZM17.7945 39.1255C14.3918 43.8809 7.70678 44.5169 7.70678 44.5169C8.18859 36.9447 10.176 32.674 10.176 32.674C12.2237 27.3431 14.7833 26.2224 15.5963 25.8892C19.5897 24.9998 19.9895 27.9695 20.1741 29.3408C20.1844 29.4172 20.194 29.4887 20.2036 29.5542C20.7064 35.5672 18.5142 38.2437 17.9059 38.9864C17.8585 39.0443 17.8207 39.0904 17.7945 39.1255Z" fill="#34ACFA"/>
</svg>
