<svg width="57" height="57" viewBox="0 0 57 57" fill="none" xmlns="http://www.w3.org/2000/svg">
<path d="M28.5 57C44.244 57 57 44.244 57 28.5C57 12.756 44.244 0 28.5 0C12.756 0 0 12.756 0 28.5C0 44.244 12.756 57 28.5 57ZM41.5893 30.4536L26.0177 46.0252C24.9375 47.1054 23.1907 47.1054 22.122 46.0252L20.1683 44.0716C19.0881 42.9913 19.0881 41.2446 20.1683 40.1758L31.8442 28.5L20.1683 16.8242C19.0881 15.744 19.0881 13.9972 20.1683 12.9284L22.122 10.9748C23.2022 9.89456 24.949 9.89456 26.0177 10.9748L41.5893 26.5464C42.6696 27.6266 42.6696 29.3734 41.5893 30.4536Z" fill="#009BFF"/>
</svg>
